<svg width="74" height="74" viewBox="0 0 74 74" fill="none" xmlns="http://www.w3.org/2000/svg">
<path d="M73.9605 61.3596L62.9 18.3446V1.23333C62.9 0.552225 62.3478 0 61.6667 0H12.3333C11.6522 0 11.1 0.552225 11.1 1.23333V18.3446L0.0394667 61.3596C0.0134125 61.4599 0.000154167 61.5631 0 61.6667V72.7667C0 73.4478 0.552225 74 1.23333 74H72.7667C73.4478 74 74 73.4478 74 72.7667V61.6667C73.9998 61.5631 73.9866 61.4599 73.9605 61.3596ZM13.5667 2.46667H60.4333V17.2667H57.9667V12.3333C57.9667 11.6522 57.4144 11.1 56.7333 11.1H39.4667C38.7856 11.1 38.2333 11.6522 38.2333 12.3333V17.2667H35.7667V12.3333C35.7667 11.6522 35.2144 11.1 34.5333 11.1H17.2667C16.5856 11.1 16.0333 11.6522 16.0333 12.3333V17.2667H13.5667V2.46667ZM55.5 13.5667V22.2H40.7V13.5667H55.5ZM33.3 13.5667V22.2H18.5V13.5667H33.3ZM13.2892 19.7333H16.0333V23.4333C16.0333 24.1144 16.5856 24.6667 17.2667 24.6667H34.5333C35.2144 24.6667 35.7667 24.1144 35.7667 23.4333V19.7333H38.2333V23.4333C38.2333 24.1144 38.7856 24.6667 39.4667 24.6667H56.7333C57.4144 24.6667 57.9667 24.1144 57.9667 23.4333V19.7333H60.7108L63.2478 29.6H10.7522L13.2892 19.7333ZM10.1133 32.0667H63.8867L64.5206 34.5333H9.48433L10.1133 32.0667ZM71.5333 71.5333H2.46667V61.8221L8.84917 37H65.1508L71.5333 61.8221V71.5333Z" fill="#333333"/>
</svg>
