<svg width="74" height="74" viewBox="0 0 74 74" fill="none" xmlns="http://www.w3.org/2000/svg">
<g clip-path="url(#clip0)">
<path d="M37 73.9988C46.8822 73.9988 56.1735 70.1497 63.1617 63.1604C70.151 56.1723 74 46.8821 74 36.9999C74 27.1178 70.151 17.8276 63.1617 10.8394C56.1735 3.85013 46.8822 0.00109863 37 0.00109863C27.1167 0.00109863 17.8265 3.85013 10.8383 10.8394C3.84904 17.8276 0 27.1178 0 36.9999C0 46.8821 3.84904 56.1723 10.8383 63.1604C17.8265 70.1497 27.1167 73.9988 37 73.9988ZM12.4732 12.4743C19.0243 5.92207 27.7341 2.31353 37 2.31353C46.2647 2.31353 54.9757 5.92207 61.5268 12.4743C68.079 19.0254 71.6876 27.7352 71.6876 36.9999C71.6876 46.2647 68.079 54.9744 61.5268 61.5256C54.9757 68.0778 46.2647 71.6864 37 71.6864C27.7341 71.6864 19.0243 68.0778 12.4732 61.5256C5.92097 54.9744 2.31243 46.2647 2.31243 36.9999C2.31243 27.7352 5.92097 19.0254 12.4732 12.4743Z" fill="#333333"/>
<path fill-rule="evenodd" clip-rule="evenodd" d="M65.9918 34.9729L67.9245 34.8377C68.1797 38.4868 67.8002 42.0832 66.8286 45.5001L64.9555 45.0001C65.873 41.7875 66.2318 38.405 65.9918 34.9729Z" fill="#333333"/>
<path fill-rule="evenodd" clip-rule="evenodd" d="M67.3225 30.5546L65.4274 30.9574C65.6019 31.7784 65.7407 32.6014 65.8441 33.4247L67.7457 33.0205C67.6379 32.1977 67.4969 31.3752 67.3225 30.5546Z" fill="#333333"/>
<path fill-rule="evenodd" clip-rule="evenodd" d="M65.071 29.4788C63.0625 21.98 58.2537 15.7124 51.5313 11.8312L52.5 10.1533C59.6704 14.2931 64.7996 20.9784 66.9421 28.9774L65.071 29.4788Z" fill="#333333"/>
<path d="M38.1562 28.9065H35.8438V54.3432H38.1562V28.9065Z" fill="#333333"/>
<path d="M38.1562 19.6569H35.8438V24.2817H38.1562V19.6569Z" fill="#333333"/>
</g>
<defs>
<clipPath id="clip0">
<rect width="74" height="74" fill="white"/>
</clipPath>
</defs>
</svg>
