<svg width="142" height="61" viewBox="0 0 142 61" fill="none" xmlns="http://www.w3.org/2000/svg">
<path d="M100.758 11L99.3516 11.1758L95.8945 26H92.7188L89.5898 14.7383H89.5195L86.3906 26H83.2148L79.7344 11.1758L78.3398 11V8.9375H84.6211V11L83.0625 11.2695L85.0195 20.6211L85.0898 20.6328L88.2891 8.9375H90.8086L94.0312 20.6328L94.1016 20.6211L96.0469 11.2695L94.4883 11V8.9375H100.758V11ZM101.742 23.9492L103.395 23.5977V15.7344L101.566 15.3828V13.3203H106.816V23.5977L108.457 23.9492V26H101.742V23.9492ZM106.816 10.2852H103.395V7.71875H106.816V10.2852ZM109.219 9.78125V7.71875H114.469V23.5977L116.121 23.9492V26H109.395V23.9492L111.047 23.5977V10.1328L109.219 9.78125ZM125.496 24.4531C125.098 25.0391 124.625 25.4844 124.078 25.7891C123.539 26.0938 122.922 26.2461 122.227 26.2461C120.664 26.2461 119.449 25.6758 118.582 24.5352C117.723 23.3945 117.293 21.8867 117.293 20.0117V19.7656C117.293 17.7656 117.727 16.1523 118.594 14.9258C119.461 13.6992 120.68 13.0859 122.25 13.0859C122.883 13.0859 123.453 13.2266 123.961 13.5078C124.469 13.7812 124.914 14.1719 125.297 14.6797V10.1328L123.469 9.78125V7.71875H125.297H128.719V23.5977L130.359 23.9492V26H125.754L125.496 24.4531ZM120.715 20.0117C120.715 21.1211 120.898 21.9961 121.266 22.6367C121.641 23.2695 122.25 23.5859 123.094 23.5859C123.594 23.5859 124.027 23.4844 124.395 23.2812C124.762 23.0781 125.062 22.7852 125.297 22.4023V17.0234C125.062 16.6172 124.762 16.3047 124.395 16.0859C124.035 15.8594 123.609 15.7461 123.117 15.7461C122.281 15.7461 121.672 16.1172 121.289 16.8594C120.906 17.6016 120.715 18.5703 120.715 19.7656V20.0117ZM96.8086 47.3828L95.5312 47.5469L92.8828 58H90.0234L87.668 50.4531H87.5977L85.2422 58H82.3945L79.7344 47.5469L78.457 47.3828V45.3203H84.1992V47.3828L82.8516 47.6406L84.0469 53.4414H84.1172L86.4844 45.3203H88.7812L91.1719 53.4648H91.2422L92.4258 47.6523L91.0664 47.3828V45.3203H96.8086V47.3828ZM97.9805 51.543C97.9805 49.6523 98.5078 48.1055 99.5625 46.9023C100.625 45.6914 102.09 45.0859 103.957 45.0859C105.832 45.0859 107.297 45.6875 108.352 46.8906C109.414 48.0938 109.945 49.6445 109.945 51.543V51.7891C109.945 53.6953 109.414 55.25 108.352 56.4531C107.297 57.6484 105.84 58.2461 103.98 58.2461C102.098 58.2461 100.625 57.6484 99.5625 56.4531C98.5078 55.25 97.9805 53.6953 97.9805 51.7891V51.543ZM101.402 51.7891C101.402 52.9453 101.605 53.875 102.012 54.5781C102.418 55.2734 103.074 55.6211 103.98 55.6211C104.863 55.6211 105.508 55.2695 105.914 54.5664C106.328 53.8633 106.535 52.9375 106.535 51.7891V51.543C106.535 50.418 106.328 49.5 105.914 48.7891C105.5 48.0781 104.848 47.7227 103.957 47.7227C103.066 47.7227 102.418 48.0781 102.012 48.7891C101.605 49.5 101.402 50.418 101.402 51.543V51.7891ZM111.691 55.9492L113.332 55.5977V47.7344L111.516 47.3828V45.3203H116.52L116.672 47.1719C116.969 46.5156 117.352 46.0039 117.82 45.6367C118.289 45.2695 118.832 45.0859 119.449 45.0859C119.629 45.0859 119.816 45.1016 120.012 45.1328C120.215 45.1562 120.383 45.1875 120.516 45.2266L120.152 48.3438L118.746 48.3086C118.246 48.3086 117.832 48.4062 117.504 48.6016C117.176 48.7969 116.926 49.0742 116.754 49.4336V55.5977L118.395 55.9492V58H111.691V55.9492ZM120.586 41.7812V39.7188H125.836V55.5977L127.488 55.9492V58H120.762V55.9492L122.414 55.5977V42.1328L120.586 41.7812ZM136.863 56.4531C136.465 57.0391 135.992 57.4844 135.445 57.7891C134.906 58.0938 134.289 58.2461 133.594 58.2461C132.031 58.2461 130.816 57.6758 129.949 56.5352C129.09 55.3945 128.66 53.8867 128.66 52.0117V51.7656C128.66 49.7656 129.094 48.1523 129.961 46.9258C130.828 45.6992 132.047 45.0859 133.617 45.0859C134.25 45.0859 134.82 45.2266 135.328 45.5078C135.836 45.7812 136.281 46.1719 136.664 46.6797V42.1328L134.836 41.7812V39.7188H136.664H140.086V55.5977L141.727 55.9492V58H137.121L136.863 56.4531ZM132.082 52.0117C132.082 53.1211 132.266 53.9961 132.633 54.6367C133.008 55.2695 133.617 55.5859 134.461 55.5859C134.961 55.5859 135.395 55.4844 135.762 55.2812C136.129 55.0781 136.43 54.7852 136.664 54.4023V49.0234C136.43 48.6172 136.129 48.3047 135.762 48.0859C135.402 47.8594 134.977 47.7461 134.484 47.7461C133.648 47.7461 133.039 48.1172 132.656 48.8594C132.273 49.6016 132.082 50.5703 132.082 51.7656V52.0117Z" fill="#333333"/>
<path d="M4.40302 9.82368H12.7639C13.224 9.82406 13.6794 9.73166 14.1033 9.55186L9.60912 14.0461L11.0002 15.4371L17.19 9.24655L19.7333 11.7907L16.4946 15.0298L17.8853 16.4208L29.9769 4.32882L35.963 10.3153L33.216 13.0624L34.6066 14.4534L42.7638 6.29583L45.7765 9.3093C46.0237 10.5282 46.9766 11.4815 48.1963 11.7287L50.9207 14.4534L52.3117 13.0624L51.04 11.7907H55.9724C57.8897 11.7587 59.4271 10.1952 59.4271 8.27748C59.4271 6.36013 57.8897 4.79699 55.9724 4.76465C55.5843 4.76426 55.1985 4.82895 54.8316 4.95638C53.995 4.18906 52.868 3.82061 51.7396 3.94573C50.6115 4.07163 49.5928 4.67879 48.9456 5.61167C47.8648 5.56778 46.8399 6.09216 46.2436 6.99463L43.4592 4.21024C43.0749 3.826 42.452 3.826 42.0685 4.21024L37.3541 8.92429L30.6722 2.24284C30.288 1.8586 29.665 1.8586 29.2816 2.24284L21.1244 10.4L17.8853 7.16095C17.501 6.77671 16.8781 6.77671 16.4946 7.16095L15.9344 7.72037C16.4003 6.61732 16.259 5.35063 15.5618 4.37733C14.8645 3.40364 13.7114 2.86232 12.5167 2.94779C11.7925 1.85629 10.6213 1.14171 9.31921 0.998101C8.01711 0.853722 6.71809 1.29533 5.77327 2.20241C4.29753 1.65223 2.63622 2.03493 1.54972 3.17494C0.463991 4.31534 0.162144 5.99322 0.783164 7.44047C1.40418 8.88733 2.82834 9.82483 4.40302 9.82368ZM48.8062 7.57483C48.9251 7.57791 49.043 7.60024 49.1554 7.64067C49.6409 7.7993 50.1668 7.55943 50.3662 7.08895C50.6465 6.43482 51.2595 5.98282 51.9675 5.90851C52.6759 5.83344 53.3689 6.1476 53.7797 6.72897C54.085 7.16287 54.6791 7.27645 55.1226 6.98654C55.674 6.62579 56.3939 6.65505 56.9145 7.05892C57.4354 7.46357 57.6421 8.1535 57.4296 8.7776C57.2167 9.40132 56.6319 9.82098 55.9724 9.82368H49.0726L47.727 8.47768C47.8256 7.9583 48.2768 7.58022 48.8062 7.57483ZM4.40302 3.92186C4.78495 3.92225 5.15803 4.03467 5.47682 4.24527C5.92073 4.53557 6.51442 4.42199 6.81973 3.98847C7.33295 3.25811 8.20153 2.8627 9.08975 2.95664C9.97719 3.0502 10.7445 3.61732 11.0941 4.43932C11.2939 4.90941 11.821 5.14812 12.3061 4.98911C12.8636 4.79314 13.4839 4.94868 13.8827 5.38452C14.282 5.81996 14.3829 6.45138 14.1388 6.99001C13.8954 7.52786 13.3541 7.86898 12.7639 7.85628H4.40302C3.31614 7.85628 2.43601 6.97537 2.43601 5.88926C2.43601 4.80238 3.31614 3.92186 4.40302 3.92186Z" fill="#333333"/>
<path d="M5.53221 56.9697C5.71047 57.2619 6.02772 57.4402 6.37038 57.4405V60.9711H8.33739V57.0501C9.36575 57.0498 10.3537 57.4502 11.0914 58.1667C11.4737 58.5413 12.0858 58.5413 12.4682 58.1667C13.257 57.3855 14.3412 56.9774 15.4493 57.0448C16.5577 57.1125 17.5842 57.65 18.2714 58.5216C18.4728 58.7711 18.7819 58.907 19.1015 58.8862C19.4207 58.8655 19.7098 58.6907 19.8769 58.4177C20.2022 57.8829 20.6254 57.4144 21.1243 57.0367V60.9711H23.0917V56.1612C25.5747 55.6279 28.0503 57.0944 28.7768 59.5281C28.8727 59.8472 29.1244 60.0967 29.4452 60.1891C29.7655 60.2819 30.1112 60.2061 30.3634 59.9874C31.8361 58.6726 34.0641 58.6837 35.5229 60.0132C35.6265 60.1029 35.7474 60.1703 35.8787 60.2095V60.9711H37.8457V59.0137C39.8327 57.5075 42.6344 57.7366 44.35 59.5458C44.5899 59.7964 44.9437 59.9027 45.2814 59.8249C45.6194 59.7471 45.8916 59.4973 45.9975 59.1673C46.6666 57.0652 48.4565 55.5151 50.6326 55.154V60.9711H52.5996V55.159C53.4166 55.2941 54.1959 55.6013 54.8854 56.0587C55.3332 56.3575 55.9373 56.2412 56.2418 55.7981C56.9745 54.7278 58.1877 54.0867 59.4851 54.0859V52.1185C57.8643 52.1197 56.3146 52.7877 55.2015 53.9658C54.3872 53.55 53.5067 53.279 52.5996 53.1662V45.6404L55.8387 48.8798L57.2298 47.4888L52.5996 42.8591V39.7386L56.8224 43.9617L58.2135 42.5707L52.5996 36.9573V33.8371L55.8387 37.0766L57.2298 35.6856L52.5996 31.0558V27.9353L56.8224 32.1585L58.2135 30.7674L52.5996 25.154V22.0335L55.8387 25.273L57.2298 23.8823L52.3116 18.9642C51.9274 18.58 51.3045 18.58 50.9206 18.9642L46.0029 23.8823L47.3935 25.273L50.6326 22.0335V25.154L45.0192 30.7674L46.4098 32.1585L50.6326 27.9353V31.0558L46.0029 35.6856L47.3935 37.0766L50.6326 33.8371V36.9573L45.0192 42.5707L46.4098 43.9617L50.6326 39.7386V42.8591L46.0029 47.4888L47.3935 48.8798L50.6326 45.6404V53.1692C48.1012 53.4799 45.8797 55.0042 44.6784 57.2538C42.6591 55.8697 40.0545 55.6676 37.8457 56.7237V45.6404L41.0848 48.8798L42.4754 47.4888L37.8457 42.8591V39.7386L42.0685 43.9617L43.4591 42.5707L37.8457 36.9573V33.8371L41.0848 37.0766L42.4754 35.6856L37.8457 31.0558V27.9353L42.0685 32.1585L43.4591 30.7674L37.8457 25.154V22.0335L41.0848 25.273L42.4754 23.8823L37.5577 18.9642C37.1735 18.58 36.5505 18.58 36.1667 18.9642L31.2485 23.8823L32.6396 25.273L35.8787 22.0335V25.154L30.2648 30.7674L31.6559 32.1585L35.8787 27.9353V31.0558L31.2485 35.6856L32.6396 37.0766L35.8787 33.8371V36.9573L30.2648 42.5707L31.6559 43.9617L35.8787 39.7386V42.8591L31.2485 47.4888L32.6396 48.8798L35.8787 45.6404V57.8571C34.1192 56.8365 31.9585 56.7937 30.1609 57.7435C28.9731 55.4851 26.6269 54.0748 24.075 54.0859C23.7459 54.0886 23.4171 54.1148 23.0917 54.1633V49.5748L26.3304 52.8143L27.7215 51.4232L23.0917 46.7935V43.673L27.3141 47.8961L28.7052 46.5051L23.0917 40.8917V37.7715L26.3304 41.011L27.7215 39.62L23.0917 34.9902V31.8697L27.3141 36.0929L28.7052 34.7019L23.0917 29.0884V25.9679L26.3304 29.2074L27.7215 27.8167L22.8034 22.8986C22.4191 22.5144 21.7962 22.5144 21.4127 22.8986L16.4946 27.8167L17.8852 29.2074L21.1243 25.9679V29.0884L15.5109 34.7019L16.9019 36.0929L21.1243 31.8697V34.9902L16.4946 39.62L17.8852 41.011L21.1243 37.7715V40.8917L15.5109 46.5051L16.9019 47.8961L21.1243 43.673V46.7935L16.4946 51.4232L17.8852 52.8143L21.1243 49.5748V54.7516C20.2889 55.1474 19.5419 55.7088 18.9302 56.4022C16.8738 54.7112 13.9366 54.6203 11.7801 56.1808C10.7753 55.4639 9.57135 55.0797 8.33739 55.0812V45.6385L11.5765 48.8772L12.9675 47.4869L8.33739 42.8591V39.7386L12.5602 43.9617L13.9508 42.5707L8.33739 36.9573V33.8371L11.5765 37.0766L12.9675 35.6856L8.33739 31.0558V27.9353L12.5602 32.1585L13.9508 30.7674L8.33739 25.154V22.0335L11.5765 25.273L12.9675 23.8823L8.04941 18.9642C7.66517 18.58 7.04222 18.58 6.65837 18.9642L1.74025 23.8823L3.13129 25.273L6.37038 22.0335V25.154L0.756939 30.7674L2.14759 32.1585L6.37038 27.9353V31.0558L1.74025 35.6856L3.13129 37.0766L6.37038 33.8371V36.9573L0.756939 42.5707L2.14759 43.9617L6.37038 39.7386V42.8591L1.74025 47.4888L3.13129 48.8798L6.37038 45.6404V54.8059C4.88771 53.0938 2.73319 52.1128 0.468567 52.1185V54.0859C2.54877 54.0798 4.47613 55.1771 5.53221 56.9697Z" fill="#333333"/>
</svg>
