<svg width="74" height="74" viewBox="0 0 74 74" fill="none" xmlns="http://www.w3.org/2000/svg">
<g clip-path="url(#clip0)">
<path d="M9.12845 16.4304C9.12845 17.0997 8.58577 17.6424 7.91645 17.6424C7.24713 17.6424 6.70445 17.0997 6.70445 16.4304C6.70445 15.7605 7.24713 15.2184 7.91645 15.2184C8.58577 15.2184 9.12845 15.7605 9.12845 16.4304Z" fill="#333333"/>
<path d="M13.9764 16.4304C13.9764 17.0997 13.4338 17.6424 12.7645 17.6424C12.0951 17.6424 11.5525 17.0997 11.5525 16.4304C11.5525 15.7605 12.0951 15.2184 12.7645 15.2184C13.4338 15.2184 13.9764 15.7605 13.9764 16.4304Z" fill="#333333"/>
<path d="M18.8244 16.4304C18.8244 17.0997 18.2818 17.6424 17.6124 17.6424C16.9431 17.6424 16.4004 17.0997 16.4004 16.4304C16.4004 15.7605 16.9431 15.2184 17.6124 15.2184C18.2818 15.2184 18.8244 15.7605 18.8244 16.4304Z" fill="#333333"/>
<path d="M23.6725 16.4304C23.6725 17.0997 23.1298 17.6424 22.4605 17.6424C21.7911 17.6424 21.2485 17.0997 21.2485 16.4304C21.2485 15.7605 21.7911 15.2184 22.4605 15.2184C23.1298 15.2184 23.6725 15.7605 23.6725 16.4304Z" fill="#333333"/>
<path d="M28.5205 16.4304C28.5205 17.0997 27.9778 17.6424 27.3085 17.6424C26.6392 17.6424 26.0965 17.0997 26.0965 16.4304C26.0965 15.7605 26.6392 15.2184 27.3085 15.2184C27.9778 15.2184 28.5205 15.7605 28.5205 16.4304Z" fill="#333333"/>
<path d="M33.3685 16.4304C33.3685 17.0997 32.8258 17.6424 32.1565 17.6424C31.4871 17.6424 30.9445 17.0997 30.9445 16.4304C30.9445 15.7605 31.4871 15.2184 32.1565 15.2184C32.8258 15.2184 33.3685 15.7605 33.3685 16.4304Z" fill="#333333"/>
<path d="M38.2165 16.4304C38.2165 17.0997 37.6738 17.6424 37.0045 17.6424C36.3352 17.6424 35.7925 17.0997 35.7925 16.4304C35.7925 15.7605 36.3352 15.2184 37.0045 15.2184C37.6738 15.2184 38.2165 15.7605 38.2165 16.4304Z" fill="#333333"/>
<path d="M43.0645 16.4304C43.0645 17.0997 42.5218 17.6424 41.8525 17.6424C41.1832 17.6424 40.6405 17.0997 40.6405 16.4304C40.6405 15.7605 41.1832 15.2184 41.8525 15.2184C42.5218 15.2184 43.0645 15.7605 43.0645 16.4304Z" fill="#333333"/>
<path d="M47.9125 16.4304C47.9125 17.0997 47.3698 17.6424 46.7005 17.6424C46.0311 17.6424 45.4885 17.0997 45.4885 16.4304C45.4885 15.7605 46.0311 15.2184 46.7005 15.2184C47.3698 15.2184 47.9125 15.7605 47.9125 16.4304Z" fill="#333333"/>
<path d="M52.7605 16.4304C52.7605 17.0997 52.2178 17.6424 51.5485 17.6424C50.8792 17.6424 50.3365 17.0997 50.3365 16.4304C50.3365 15.7605 50.8792 15.2184 51.5485 15.2184C52.2178 15.2184 52.7605 15.7605 52.7605 16.4304Z" fill="#333333"/>
<path d="M57.6084 16.4304C57.6084 17.0997 57.0658 17.6424 56.3964 17.6424C55.7271 17.6424 55.1844 17.0997 55.1844 16.4304C55.1844 15.7605 55.7271 15.2184 56.3964 15.2184C57.0658 15.2184 57.6084 15.7605 57.6084 16.4304Z" fill="#333333"/>
<path d="M62.4565 16.4304C62.4565 17.0997 61.9138 17.6424 61.2445 17.6424C60.5752 17.6424 60.0325 17.0997 60.0325 16.4304C60.0325 15.7605 60.5752 15.2184 61.2445 15.2184C61.9138 15.2184 62.4565 15.7605 62.4565 16.4304Z" fill="#333333"/>
<path d="M67.3044 16.4304C67.3044 17.0997 66.7617 17.6424 66.0924 17.6424C65.4231 17.6424 64.8804 17.0997 64.8804 16.4304C64.8804 15.7605 65.4231 15.2184 66.0924 15.2184C66.7617 15.2184 67.3044 15.7605 67.3044 16.4304Z" fill="#333333"/>
<path d="M67.3044 21.2783C67.3044 21.9476 66.7617 22.4903 66.0924 22.4903C65.4231 22.4903 64.8804 21.9476 64.8804 21.2783C64.8804 20.6084 65.4231 20.0663 66.0924 20.0663C66.7617 20.0663 67.3044 20.6084 67.3044 21.2783Z" fill="#333333"/>
<path d="M13.9764 26.1264C13.9764 26.7958 13.4338 27.3384 12.7645 27.3384C12.0951 27.3384 11.5525 26.7958 11.5525 26.1264C11.5525 25.4565 12.0951 24.9144 12.7645 24.9144C13.4338 24.9144 13.9764 25.4565 13.9764 26.1264Z" fill="#333333"/>
<path d="M18.8244 26.1264C18.8244 26.7958 18.2818 27.3384 17.6124 27.3384C16.9431 27.3384 16.4004 26.7958 16.4004 26.1264C16.4004 25.4565 16.9431 24.9144 17.6124 24.9144C18.2818 24.9144 18.8244 25.4565 18.8244 26.1264Z" fill="#333333"/>
<path d="M23.6725 26.1264C23.6725 26.7958 23.1298 27.3384 22.4605 27.3384C21.7911 27.3384 21.2485 26.7958 21.2485 26.1264C21.2485 25.4565 21.7911 24.9144 22.4605 24.9144C23.1298 24.9144 23.6725 25.4565 23.6725 26.1264Z" fill="#333333"/>
<path d="M28.5205 26.1264C28.5205 26.7958 27.9778 27.3384 27.3085 27.3384C26.6392 27.3384 26.0965 26.7958 26.0965 26.1264C26.0965 25.4565 26.6392 24.9144 27.3085 24.9144C27.9778 24.9144 28.5205 25.4565 28.5205 26.1264Z" fill="#333333"/>
<path d="M33.3685 26.1264C33.3685 26.7958 32.8258 27.3384 32.1565 27.3384C31.4871 27.3384 30.9445 26.7958 30.9445 26.1264C30.9445 25.4565 31.4871 24.9144 32.1565 24.9144C32.8258 24.9144 33.3685 25.4565 33.3685 26.1264Z" fill="#333333"/>
<path d="M38.2165 26.1264C38.2165 26.7958 37.6738 27.3384 37.0045 27.3384C36.3352 27.3384 35.7925 26.7958 35.7925 26.1264C35.7925 25.4565 36.3352 24.9144 37.0045 24.9144C37.6738 24.9144 38.2165 25.4565 38.2165 26.1264Z" fill="#333333"/>
<path d="M43.0645 26.1264C43.0645 26.7958 42.5218 27.3384 41.8525 27.3384C41.1832 27.3384 40.6405 26.7958 40.6405 26.1264C40.6405 25.4565 41.1832 24.9144 41.8525 24.9144C42.5218 24.9144 43.0645 25.4565 43.0645 26.1264Z" fill="#333333"/>
<path d="M47.9125 26.1264C47.9125 26.7958 47.3698 27.3384 46.7005 27.3384C46.0311 27.3384 45.4885 26.7958 45.4885 26.1264C45.4885 25.4565 46.0311 24.9144 46.7005 24.9144C47.3698 24.9144 47.9125 25.4565 47.9125 26.1264Z" fill="#333333"/>
<path d="M52.7605 26.1264C52.7605 26.7958 52.2178 27.3384 51.5485 27.3384C50.8792 27.3384 50.3365 26.7958 50.3365 26.1264C50.3365 25.4565 50.8792 24.9144 51.5485 24.9144C52.2178 24.9144 52.7605 25.4565 52.7605 26.1264Z" fill="#333333"/>
<path d="M29.7325 58.8503C29.7325 59.5196 29.1898 60.0623 28.5205 60.0623C27.8511 60.0623 27.3085 59.5196 27.3085 58.8503C27.3085 58.1804 27.8511 57.6383 28.5205 57.6383C29.1898 57.6383 29.7325 58.1804 29.7325 58.8503Z" fill="#333333"/>
<path d="M57.6084 26.1264C57.6084 26.7958 57.0658 27.3384 56.3964 27.3384C55.7271 27.3384 55.1844 26.7958 55.1844 26.1264C55.1844 25.4565 55.7271 24.9144 56.3964 24.9144C57.0658 24.9144 57.6084 25.4565 57.6084 26.1264Z" fill="#333333"/>
<path d="M62.4565 26.1264C62.4565 26.7958 61.9138 27.3384 61.2445 27.3384C60.5752 27.3384 60.0325 26.7958 60.0325 26.1264C60.0325 25.4565 60.5752 24.9144 61.2445 24.9144C61.9138 24.9144 62.4565 25.4565 62.4565 26.1264Z" fill="#333333"/>
<path d="M67.3044 26.1264C67.3044 26.7958 66.7617 27.3384 66.0924 27.3384C65.4231 27.3384 64.8804 26.7958 64.8804 26.1264C64.8804 25.4565 65.4231 24.9144 66.0924 24.9144C66.7617 24.9144 67.3044 25.4565 67.3044 26.1264Z" fill="#333333"/>
<path d="M9.12845 21.2783C9.12845 21.9476 8.58577 22.4903 7.91645 22.4903C7.24713 22.4903 6.70445 21.9476 6.70445 21.2783C6.70445 20.6084 7.24713 20.0663 7.91645 20.0663C8.58577 20.0663 9.12845 20.6084 9.12845 21.2783Z" fill="#333333"/>
<path d="M9.12845 26.1264C9.12845 26.7958 8.58577 27.3384 7.91645 27.3384C7.24713 27.3384 6.70445 26.7958 6.70445 26.1264C6.70445 25.4565 7.24713 24.9144 7.91645 24.9144C8.58577 24.9144 9.12845 25.4565 9.12845 26.1264Z" fill="#333333"/>
<path d="M41.8525 62.4862H58.8205C59.4898 62.4862 60.0325 61.9436 60.0325 61.2742V40.6703C60.0325 40.0003 59.4898 39.4583 58.8205 39.4583H41.8525C41.1832 39.4583 40.6405 40.0003 40.6405 40.6703V61.2742C40.6405 61.9436 41.1832 62.4862 41.8525 62.4862ZM51.5485 60.0622H49.1245V57.6382C49.1245 56.9683 49.6672 56.4262 50.3365 56.4262C51.0058 56.4262 51.5485 56.9683 51.5485 57.6382V60.0622ZM51.5485 52.7902C51.5485 53.4596 51.0058 54.0022 50.3365 54.0022C49.6672 54.0022 49.1245 53.4596 49.1245 52.7902C49.1245 52.1203 49.6672 51.5782 50.3365 51.5782H51.5485V52.7902ZM43.0645 41.8823H57.6085V44.3063H43.0645V41.8823ZM43.0645 46.7303H57.6085V60.0622H53.9725V57.6382C53.9695 56.7405 53.6328 55.8765 53.0274 55.2142C53.6328 54.5514 53.9695 53.6874 53.9725 52.7902V50.3663C53.9725 49.6963 53.4298 49.1543 52.7605 49.1543H50.3365C48.8996 49.1477 47.5953 49.9916 47.0118 51.3048C46.4289 52.6186 46.6774 54.1526 47.6462 55.2142C47.0408 55.8765 46.704 56.7405 46.7005 57.6382V60.0622H43.0645V46.7303Z" fill="#333333"/>
<path d="M11.5525 20.0663H62.4564V22.4903H11.5525V20.0663Z" fill="#333333"/>
<path d="M67.9447 0.674234H67.4754C65.4485 0.671867 63.5554 1.68561 62.4322 3.37283L61.448 4.84936L63.4648 6.19451L64.4502 4.71739C65.1236 3.70423 66.2593 3.09646 67.4754 3.09823H67.9447C69.323 3.09291 70.5842 3.8723 71.1961 5.10738C71.7056 6.13178 71.7056 7.33609 71.1961 8.36049C70.5842 9.59557 69.323 10.375 67.9447 10.3702H66.4901C65.7036 10.3685 64.9384 10.1134 64.3087 9.64291L58.8204 5.52223C56.7201 3.95338 54.1701 3.10356 51.5484 3.09823H50.3364C47.6591 3.09823 45.4884 5.26835 45.4884 7.94623H47.9124C47.9124 6.607 48.9978 5.52223 50.3364 5.52223H51.5484C53.6458 5.52638 55.6857 6.20635 57.3664 7.46096L61.2444 10.3702H41.8211C42.623 9.32689 43.0603 8.0498 43.0644 6.73423C43.0644 3.38703 40.3516 0.674234 37.0044 0.674234C33.6578 0.674234 30.9444 3.38703 30.9444 6.73423C30.9492 8.0498 31.3859 9.32689 32.1884 10.3702H12.7644L16.6431 7.46096C18.3232 6.20635 20.3637 5.52638 22.4604 5.52223H23.6724C25.0111 5.52223 26.0964 6.607 26.0964 7.94623H28.5204C28.5204 5.26835 26.3503 3.09823 23.6724 3.09823H22.4604C19.8394 3.10356 17.2893 3.95338 15.1884 5.52223L9.69479 9.64291C9.06453 10.1134 8.29934 10.3685 7.51284 10.3702H6.06471C4.68642 10.375 3.4253 9.59557 2.81279 8.36049C2.30385 7.33609 2.30385 6.13178 2.81279 5.10738C3.42471 3.8723 4.68642 3.09291 6.06471 3.09823H6.53401C7.75133 3.09468 8.88936 3.70305 9.56401 4.71739L10.5493 6.19451L12.5656 4.84936L11.5767 3.37283C10.4541 1.68561 8.56091 0.671867 6.53401 0.674234H6.06471C3.76736 0.665949 1.66471 1.96553 0.644448 4.0238C-0.566368 6.42532 -0.037302 9.33932 1.94167 11.1615C1.88781 11.2952 1.85941 11.4378 1.85645 11.5822V30.9742C1.85645 31.0009 1.87006 31.0222 1.87124 31.0488C1.87834 31.1583 1.90024 31.266 1.93693 31.369C1.94995 31.408 1.95942 31.4453 1.97658 31.4832C2.03399 31.611 2.11329 31.7276 2.21034 31.8282L6.70445 36.3235V72.1822C6.70445 72.8516 7.24712 73.3942 7.91645 73.3942H66.0924C66.7617 73.3942 67.3044 72.8516 67.3044 72.1822V36.3235L71.7973 31.8306C71.895 31.73 71.9743 31.6134 72.0317 31.4855C72.0483 31.4477 72.0583 31.4104 72.0713 31.3713C72.1074 31.2684 72.1299 31.1606 72.137 31.0518C72.137 31.0251 72.1512 31.0032 72.1512 30.9766V11.5822C72.1489 11.4378 72.1199 11.2952 72.0666 11.1615C73.8905 9.46715 74.4912 6.82951 73.5804 4.51263C72.6696 2.19574 70.4338 0.67305 67.9447 0.674234ZM37.0044 3.09823C39.013 3.09823 40.6404 4.72567 40.6404 6.73423C40.6404 8.7422 39.013 10.3702 37.0044 10.3702C34.9965 10.3702 33.3684 8.7422 33.3684 6.73423C33.3684 4.72567 34.9965 3.09823 37.0044 3.09823ZM32.1564 70.9702H16.4004V46.7302H32.1564V70.9702ZM32.1564 44.3062H16.4004V41.8822H32.1564V44.3062ZM64.8804 70.9702H34.5804V40.6702C34.5804 40.0003 34.0378 39.4582 33.3684 39.4582H15.1884C14.5191 39.4582 13.9764 40.0003 13.9764 40.6702V70.9702H9.12844V37.0342H64.8804V70.9702ZM65.5906 34.6102H8.41829L5.99429 32.1862H68.0146L65.5906 34.6102ZM69.7284 29.7622H4.28045V12.7942H69.7284V29.7622Z" fill="#333333"/>
<path d="M40.6405 64.9104H60.0325V67.3344H40.6405V64.9104Z" fill="#333333"/>
</g>
<defs>
<clipPath id="clip0">
<rect width="74" height="74" fill="white"/>
</clipPath>
</defs>
</svg>
