<svg width="74" height="74" viewBox="0 0 74 74" fill="none" xmlns="http://www.w3.org/2000/svg">
<path d="M14.6996 35.4163L16.4315 33.6843L9.44123 26.694V22.8088L14.6996 28.0671L16.4315 26.3352L9.08235 18.986L9.07377 18.9946C8.62042 18.5164 7.86545 18.4962 7.38714 18.9496C7.37413 18.9618 7.36157 18.9744 7.34917 18.9872L0 26.3364L1.73195 28.0683L6.99151 22.8088V26.694L0.00122486 33.6843L1.73318 35.4163L6.99151 30.158V34.0432L0.00122486 41.0335L1.73318 42.7654L6.99151 37.5071V41.3924L0.00122486 48.3827L1.73318 50.1146L6.99151 44.8563V73.7459H9.44123V44.8563L14.6996 50.1146L16.4315 48.3827L9.44123 41.3924V37.5071L14.6996 42.7654L16.4315 41.0335L9.44123 34.0432V30.158L14.6996 35.4163Z" fill="#333333"/>
<path d="M72.268 40.3158L74 38.5838L67.0097 31.5935V27.7083L72.268 32.9666L74 31.2346L66.6508 23.8855L66.6422 23.894C66.1889 23.4159 65.4338 23.3957 64.9556 23.849C64.9426 23.8613 64.93 23.8738 64.9176 23.8867L57.5685 31.2359L59.3004 32.9678L64.56 27.7083V31.5935L57.5697 38.5838L59.3016 40.3158L64.56 35.0574V38.9427L57.5697 45.933L59.3016 47.6649L64.56 42.4066V54.1481L61.9878 48.7257C61.7863 48.2988 61.3574 48.0258 60.8854 48.0238H44.9622V38.732L50.2205 43.9903L51.9525 42.2584L44.9622 35.2681V31.3829L50.2205 36.6412L51.9525 34.9092L44.9622 27.9189V24.0337L50.2205 29.292L51.9525 27.5601L44.9622 20.5698V16.6845L50.2205 21.9428L51.9525 20.2109L44.6033 12.8617L44.5947 12.8703C44.1414 12.3921 43.3863 12.3719 42.9081 12.8253C42.8951 12.8375 42.8825 12.8501 42.8701 12.8629L35.521 20.2121L37.2529 21.9441L42.5125 16.6845V20.5698L35.5222 27.5601L37.2541 29.292L42.5125 24.0337V27.9189L35.5222 34.9092L37.2541 36.6412L42.5125 31.3829V35.2681L35.5222 42.2584L37.2541 43.9903L42.5125 38.732V48.0238H25.3644C25.0188 48.0258 24.6907 48.1757 24.4629 48.4354C24.3905 48.5078 24.3291 48.5903 24.2804 48.6803L12.0318 71.9527C11.7179 72.552 11.9493 73.2922 12.5485 73.6061C12.7235 73.6978 12.9183 73.7458 13.1158 73.7459H49.8616V71.2962H38.3479L27.3928 50.4735H60.1101L69.9739 71.2962H57.2108V73.7459H71.9091C72.5856 73.7433 73.1319 73.1929 73.1294 72.5164C73.1288 72.3367 73.0885 72.1592 73.0115 71.9968L67.0097 59.3183V42.4066L72.268 47.6649L74 45.933L67.0097 38.9427V35.0574L72.268 40.3158ZM24.1396 71.2962H15.1442L24.1396 54.2057V71.2962ZM35.5847 71.2962H26.5893V54.2057L35.5847 71.2962Z" fill="#333333"/>
<path d="M23.5271 0.254272C22.8507 0.254426 22.3024 0.802857 22.3025 1.47944C22.3025 1.80418 22.4316 2.11545 22.6611 2.34511C23.9261 3.48194 24.7435 5.03307 24.9663 6.71909C25.1984 8.78696 23.7104 10.6515 21.6425 10.8836C21.3631 10.915 21.081 10.915 20.8018 10.8836L20.8055 10.8799C19.1194 10.6572 17.5683 9.83973 16.4315 8.57476C15.953 8.09645 15.1775 8.0966 14.6992 8.57506C14.4697 8.80473 14.3406 9.11615 14.3406 9.44073C14.3406 14.5143 18.4536 18.6272 23.5271 18.6272C28.6006 18.6272 32.7136 14.5143 32.7136 9.44073C32.7136 4.3672 28.6006 0.254272 23.5271 0.254272ZM29.5937 12.377C27.972 15.7257 23.9428 17.1257 20.5943 15.504C19.231 14.8438 18.1301 13.7434 17.4691 12.3804C18.4445 12.9059 19.5178 13.2248 20.6219 13.3174C22.4688 13.4854 24.2962 12.8322 25.6181 11.5316C27.6869 9.30661 28.0331 5.98096 26.4669 3.37767C29.8154 4.99939 31.2152 9.02857 29.5937 12.377Z" fill="#333333"/>
</svg>
